REM DIRINDEX 1\2,1\3
REM DIRNAME cjc102,folder01,folder02
TITLE ""
FILE "CD1Track41.mp3" MP3
  TRACK 01 AUDIO
    TITLE "0:"
    INDEX 01 00:00:00
  TRACK 02 AUDIO
    TITLE "2:cjc102_1954"
    INDEX 01 00:00:27
  TRACK 03 AUDIO
    TITLE "0:"
    INDEX 01 00:01:22
  TRACK 04 AUDIO
    TITLE "3:cjc102_1955"
    INDEX 01 00:01:30
  TRACK 05 AUDIO
    TITLE "0:"
    INDEX 01 00:02:69
  TRACK 06 AUDIO
    TITLE "3:cjc102_1956"
    INDEX 01 00:03:06
  TRACK 07 AUDIO
    TITLE "0:"
    INDEX 01 00:06:57
  TRACK 08 AUDIO
    TITLE "2:cjc102_1957"
    INDEX 01 00:06:59
  TRACK 09 AUDIO
    TITLE "0:"
    INDEX 01 00:07:66
  TRACK 10 AUDIO
    TITLE "3:cjc102_1958"
    INDEX 01 00:08:68
  TRACK 11 AUDIO
    TITLE "0:"
    INDEX 01 00:09:63
  TRACK 12 AUDIO
    TITLE "2:cjc102_1959"
    INDEX 01 00:10:31
  TRACK 13 AUDIO
    TITLE "0:"
    INDEX 01 00:11:33
  TRACK 14 AUDIO
    TITLE "3:cjc102_1960"
    INDEX 01 00:12:03
  TRACK 15 AUDIO
    TITLE "0:"
    INDEX 01 00:12:63
  TRACK 16 AUDIO
    TITLE "2:cjc102_1961"
    INDEX 01 00:13:33
  TRACK 17 AUDIO
    TITLE "0:"
    INDEX 01 00:14:45
  TRACK 18 AUDIO
    TITLE "3:cjc102_1962"
    INDEX 01 00:15:50
  TRACK 19 AUDIO
    TITLE "0:"
    INDEX 01 00:16:49
  TRACK 20 AUDIO
    TITLE "2:cjc102_1963"
    INDEX 01 00:17:04
  TRACK 21 AUDIO
    TITLE "0:"
    INDEX 01 00:18:17
  TRACK 22 AUDIO
    TITLE "3:cjc102_1964"
    INDEX 01 00:19:15
  TRACK 23 AUDIO
    TITLE "0:"
    INDEX 01 00:20:24
  TRACK 24 AUDIO
    TITLE "2:cjc102_1965"
    INDEX 01 00:20:45
  TRACK 25 AUDIO
    TITLE "0:"
    INDEX 01 00:21:64
  TRACK 26 AUDIO
    TITLE "3:cjc102_1966"
    INDEX 01 00:23:06
  TRACK 27 AUDIO
    TITLE "0:"
    INDEX 01 00:23:61
  TRACK 28 AUDIO
    TITLE "2:cjc102_1967"
    INDEX 01 00:24:37
  TRACK 29 AUDIO
    TITLE "0:"
    INDEX 01 00:25:48
  TRACK 30 AUDIO
    TITLE "3:cjc102_1968"
    INDEX 01 00:26:64
  TRACK 31 AUDIO
    TITLE "0:"
    INDEX 01 00:27:59
  TRACK 32 AUDIO
    TITLE "2:cjc102_1969"
    INDEX 01 00:28:06
  TRACK 33 AUDIO
    TITLE "0:"
    INDEX 01 00:29:36
  TRACK 34 AUDIO
    TITLE "3:cjc102_1970"
    INDEX 01 00:30:55
  TRACK 35 AUDIO
    TITLE "0:"
    INDEX 01 00:31:59
  TRACK 36 AUDIO
    TITLE "2:cjc102_1971"
    INDEX 01 00:32:00
  TRACK 37 AUDIO
    TITLE "0:"
    INDEX 01 00:33:05
  TRACK 38 AUDIO
    TITLE "3:cjc102_1972"
    INDEX 01 00:35:04
  TRACK 39 AUDIO
    TITLE "0:"
    INDEX 01 00:35:74
  TRACK 40 AUDIO
    TITLE "2:cjc102_1973"
    INDEX 01 00:36:31
  TRACK 41 AUDIO
    TITLE "0:"
    INDEX 01 00:37:42
  TRACK 42 AUDIO
    TITLE "3:cjc102_1974"
    INDEX 01 00:38:67
  TRACK 43 AUDIO
    TITLE "0:"
    INDEX 01 00:39:60
  TRACK 44 AUDIO
    TITLE "2:cjc102_1975"
    INDEX 01 00:40:36
  TRACK 45 AUDIO
    TITLE "0:"
    INDEX 01 00:41:45
  TRACK 46 AUDIO
    TITLE "3:cjc102_1976"
    INDEX 01 00:42:53
  TRACK 47 AUDIO
    TITLE "0:"
    INDEX 01 00:43:48
  TRACK 48 AUDIO
    TITLE "2:cjc102_1977"
    INDEX 01 00:44:38
  TRACK 49 AUDIO
    TITLE "0:"
    INDEX 01 00:45:43
  TRACK 50 AUDIO
    TITLE "3:cjc102_1978"
    INDEX 01 00:47:17
  TRACK 51 AUDIO
    TITLE "0:"
    INDEX 01 00:48:20
  TRACK 52 AUDIO
    TITLE "2:cjc102_1979"
    INDEX 01 00:48:26
  TRACK 53 AUDIO
    TITLE "0:"
    INDEX 01 00:49:33
  TRACK 54 AUDIO
    TITLE "3:cjc102_1980"
    INDEX 01 00:50:62
  TRACK 55 AUDIO
    TITLE "0:"
    INDEX 01 00:52:00
  TRACK 56 AUDIO
    TITLE "2:cjc102_1981"
    INDEX 01 00:52:20
  TRACK 57 AUDIO
    TITLE "0:"
    INDEX 01 00:53:29
  TRACK 58 AUDIO
    TITLE "3:cjc102_1982"
    INDEX 01 00:54:42
  TRACK 59 AUDIO
    TITLE "0:"
    INDEX 01 00:55:63
  TRACK 60 AUDIO
    TITLE "2:cjc102_1983"
    INDEX 01 00:55:73
  TRACK 61 AUDIO
    TITLE "0:"
    INDEX 01 00:57:01
  TRACK 62 AUDIO
    TITLE "3:cjc102_1984"
    INDEX 01 00:58:07
  TRACK 63 AUDIO
    TITLE "0:"
    INDEX 01 00:59:24
  TRACK 64 AUDIO
    TITLE "2:cjc102_1985"
    INDEX 01 00:59:36
  TRACK 65 AUDIO
    TITLE "0:"
    INDEX 01 01:01:03
  TRACK 66 AUDIO
    TITLE "3:cjc102_1986"
    INDEX 01 01:02:44
  TRACK 67 AUDIO
    TITLE "0:"
    INDEX 01 01:03:51
  TRACK 68 AUDIO
    TITLE "2:cjc102_1987"
    INDEX 01 01:04:19
  TRACK 69 AUDIO
    TITLE "0:"
    INDEX 01 01:05:22
  TRACK 70 AUDIO
    TITLE "3:cjc102_1988"
    INDEX 01 01:07:27
  TRACK 71 AUDIO
    TITLE "0:"
    INDEX 01 01:08:38
  TRACK 72 AUDIO
    TITLE "2:cjc102_1989"
    INDEX 01 01:08:72
  TRACK 73 AUDIO
    TITLE "0:"
    INDEX 01 01:09:69
  TRACK 74 AUDIO
    TITLE "3:cjc102_1990"
    INDEX 01 01:11:45
  TRACK 75 AUDIO
    TITLE "0:"
    INDEX 01 01:12:66
  TRACK 76 AUDIO
    TITLE "2:cjc102_1991"
    INDEX 01 01:13:18
  TRACK 77 AUDIO
    TITLE "0:"
    INDEX 01 01:14:23
  TRACK 78 AUDIO
    TITLE "2:cjc102_1992"
    INDEX 01 01:15:66
  TRACK 79 AUDIO
    TITLE "0:"
    INDEX 01 01:16:73
  TRACK 80 AUDIO
    TITLE "3:cjc102_1993"
    INDEX 01 01:18:74
  TRACK 81 AUDIO
    TITLE "0:"
    INDEX 01 01:20:22
  TRACK 82 AUDIO
    TITLE "2:cjc102_1994"
    INDEX 01 01:20:24
  TRACK 83 AUDIO
    TITLE "0:"
    INDEX 01 01:21:31
  TRACK 84 AUDIO
    TITLE "2:cjc102_1995"
    INDEX 01 01:21:69
  TRACK 85 AUDIO
    TITLE "0:"
    INDEX 01 01:23:03
  TRACK 86 AUDIO
    TITLE "3:cjc102_1996"
    INDEX 01 01:24:32
  TRACK 87 AUDIO
    TITLE "0:"
    INDEX 01 01:25:57
  TRACK 88 AUDIO
    TITLE "2:cjc102_1997"
    INDEX 01 01:25:64
  TRACK 89 AUDIO
    TITLE "0:"
    INDEX 01 01:28:35
  TRACK 90 AUDIO
    TITLE "3:cjc102_1998"
    INDEX 01 01:29:11
  TRACK 91 AUDIO
    TITLE "0:"
    INDEX 01 01:30:20
  TRACK 92 AUDIO
    TITLE "2:cjc102_1999"
    INDEX 01 01:30:22
  TRACK 93 AUDIO
    TITLE "0:"
    INDEX 01 01:33:72
  TRACK 94 AUDIO
    TITLE "3:cjc102_2000"
    INDEX 01 01:34:24
  TRACK 95 AUDIO
    TITLE "0:"
    INDEX 01 01:35:51
  TRACK 96 AUDIO
    TITLE "2:cjc102_2001"
    INDEX 01 01:36:33
  TRACK 97 AUDIO
    TITLE "0:"
    INDEX 01 01:37:44
  TRACK 98 AUDIO
    TITLE "3:cjc102_2002"
    INDEX 01 01:38:55
  TRACK 99 AUDIO
    TITLE "0:"
    INDEX 01 01:40:01
  TRACK 100 AUDIO
    TITLE "2:cjc102_2003"
    INDEX 01 01:40:15
  TRACK 101 AUDIO
    TITLE "0:"
    INDEX 01 01:41:20
  TRACK 102 AUDIO
    TITLE "3:cjc102_2004"
    INDEX 01 01:42:41
  TRACK 103 AUDIO
    TITLE "0:"
    INDEX 01 01:43:68
  TRACK 104 AUDIO
    TITLE "2:cjc102_2005"
    INDEX 01 01:44:66
  TRACK 105 AUDIO
    TITLE "0:"
    INDEX 01 01:46:16
  TRACK 106 AUDIO
    TITLE "3:cjc102_2006"
    INDEX 01 01:48:26
  TRACK 107 AUDIO
    TITLE "0:"
    INDEX 01 01:49:57
  TRACK 108 AUDIO
    TITLE "2:cjc102_2007"
    INDEX 01 01:50:00
  TRACK 109 AUDIO
    TITLE "0:"
    INDEX 01 01:51:03
